<?xml version="1.0"?><svg width="640" height="480" xmlns="http://www.w3.org/2000/svg">
 <metadata id="metadata7">image/svg+xml</metadata>
 <g>
  <title>Layer 1</title>
  <g id="layer1">
   <path fill="#666666" stroke="#000000" stroke-width="1.25973046px" id="path2830" d="m168.742859,273.182922c0.278351,10.07196 2.249512,30.143555 2.249512,30.143555c0.795227,10.656067 1.632278,21.310913 2.699417,31.943176c0.648346,6.459595 2.249527,19.345825 2.249527,19.345825c0.353302,3.03833 0.670761,6.155273 1.799622,8.998108c0.522141,1.31488 2.249512,3.599243 2.249512,3.599243c1.680923,2.689453 1.049942,6.277283 1.124756,9.447937c0.074509,3.156494 -0.674866,9.447998 -0.674866,9.447998c-0.12207,1.708801 -1.502167,3.092407 -2.024551,4.723999c-1.287109,4.020142 -2.529587,8.154602 -2.699432,12.372375c-0.112625,2.797302 1.124756,8.323181 1.124756,8.323181c0.177658,1.314636 1.69812,2.054199 2.699432,2.924377c0.894897,0.77771 1.818604,1.596863 2.924377,2.024597c1.058319,0.409302 2.244629,0.557068 3.374268,0.44989c0.708191,-0.067139 1.441071,-0.268005 2.024582,-0.674866c0.393829,-0.274597 0.899811,-1.124756 0.899811,-1.124756c0.564056,-0.705078 1.09845,1.455627 1.799606,2.024536c0.938889,0.761841 3.149323,1.799622 3.149323,1.799622c1.20047,0.686035 2.666992,0.862854 4.049133,0.899841c0.911896,0.024353 2.699417,-0.44989 2.699417,-0.44989c0.538467,-0.089722 1.059402,-0.269653 1.574661,-0.449951c0.92012,-0.321899 2.699432,-1.124756 2.699432,-1.124756c1.028961,-0.428711 1.371277,1.787964 2.249512,2.474487c0.872269,0.681824 2.924377,1.574646 2.924377,1.574646c1.066605,0.574341 2.391525,-0.641357 3.374268,-1.34967c1.035919,-0.746643 2.474487,-2.924377 2.474487,-2.924377c1.211853,-1.43219 -0.128693,-3.781372 0.224945,-5.62384c0.254822,-1.327515 1.417221,-2.47406 1.349716,-3.824158c0,0 0.221848,-3.065491 -0.22496,-4.499023c-0.551056,-1.768127 -1.971527,-3.135925 -2.924362,-4.723999c0,0 -2.952957,-4.365234 -4.049149,-6.748535c-1.18898,-2.585144 -2.018723,-5.335449 -2.699402,-8.098328c-0.781479,-3.171875 -1.145386,-6.434509 -1.574677,-9.672913c-0.772614,-5.82843 -1.799622,-17.546265 -1.799622,-17.546265c-0.690628,-6.733582 -1.255676,-13.484253 -1.574661,-20.245667c-0.424103,-8.989319 -0.449905,-26.994202 -0.449905,-26.994202c-0.061203,-3.6745 0.069199,-7.350952 0.22496,-11.022644c0.098801,-2.327271 0.121307,-4.66748 0.449921,-6.973511c0.292572,-2.053223 1.349686,-6.073669 1.349686,-6.073669c0.416611,-1.874817 2.334381,-3.053894 3.599243,-4.499084c1.571808,-1.795837 4.948929,-5.173889 4.948929,-5.173889c1.692261,-1.769165 3.615601,-3.323669 5.623795,-4.723938c1.487671,-1.037354 4.723984,-2.699463 4.723984,-2.699463c1.043701,-0.596375 2.40126,-0.12561 3.599243,-0.224976c2.178665,-0.180664 6.523605,-0.674805 6.523605,-0.674805c1.944962,-0.201233 4.37645,-0.836853 5.848755,0.44989c0.808395,0.706482 0.67485,3.149353 0.67485,3.149353l0.899811,9.897827c0.327621,3.603882 0.757248,7.197693 1.124756,10.797729c0.382629,3.748413 1.124756,11.247559 1.124756,11.247559c0.435898,4.358887 1.185883,8.683899 1.574677,13.047241c0.346619,3.890198 0.67485,11.69751 0.67485,11.69751c0.129623,2.247009 0.187454,4.498047 0.22496,6.748535c0.023697,1.4245 0,4.274109 0,4.274109c0,1.164063 0.474777,2.290527 0.899796,3.374268c0.526611,1.342773 2.024551,3.824158 2.024551,3.824158c0.984863,1.860291 0.20163,4.208435 0.449921,6.298645c0.269012,2.264648 -0.029404,4.781616 1.124741,6.748596c0.971893,1.656433 4.499039,3.599182 4.499039,3.599182c0.981522,0.785217 0.732391,2.40509 1.124771,3.599243c0.718063,2.185242 2.249496,6.523621 2.249496,6.523621c0.658203,1.908691 1.970734,3.534607 3.149353,5.173889c1.08728,1.512268 3.599243,4.274048 3.599243,4.274048c0.843506,1.001709 2.304565,1.377869 3.599213,1.574707c1.342621,0.204102 3.149323,-0.224976 4.049133,-0.44989c0.899811,-0.224976 3.033356,-0.818359 3.824188,-2.024597c0.536072,-0.817627 -0.654114,-2.49646 0.224945,-2.924377c0.729279,-0.35498 2.024567,1.349731 2.024567,1.349731c2.271057,1.513977 4.964294,2.428711 7.648376,2.924377c1.695953,0.313171 3.552246,0.587097 5.173889,0c1.101318,-0.398743 2.076721,-1.257507 2.699402,-2.249512c0.328735,-0.523743 0.473633,-1.181763 0.449921,-1.799622c-0.036407,-0.947815 -0.899811,-2.699463 -0.899811,-2.699463c-0.185211,-0.555603 1.005493,-0.65094 1.349701,-1.124756c0.474701,-0.653381 0.899811,-2.249512 0.899811,-2.249512c0.306335,-0.765808 0.260864,-1.691956 0,-2.474487c-0.355682,-1.067017 -2.024567,-2.699402 -2.024567,-2.699402c-2.235077,-2.980103 -5.608856,-4.909973 -8.548157,-7.198486c-2.331635,-1.815308 -7.198456,-5.173889 -7.198456,-5.173889c-1.638336,-1.17749 -3.308594,-2.420105 -4.499054,-4.049133c-1.504883,-2.059265 -3.149323,-6.97345 -3.149323,-6.97345c-1.192505,-2.640564 -1.33783,-5.660522 -1.574646,-8.548218c-0.662048,-8.07251 0.44989,-24.2948 0.44989,-24.2948c0.091797,-4.957153 0.232086,-9.93396 0.89978,-14.846802c0.485291,-3.570313 1.623383,-7.024414 2.249542,-10.572754c0,0 0.878784,-5.102722 1.349701,-7.648376c0.430725,-2.328125 1.028625,-4.627686 1.349731,-6.97345c0.377502,-2.757813 0.102539,-5.599182 0.674866,-8.323242c0.424133,-2.019043 2.024536,-5.848755 2.024536,-5.848755c1.022278,-2.953186 2.920502,-5.546021 4.723999,-8.098267c1.473816,-2.085693 4.948944,-5.848755 4.948944,-5.848755c2.002319,-2.366333 3.696136,-5.037903 4.948944,-7.873291c1.132294,-2.562622 2.249512,-8.098267 2.249512,-8.098267c1.184753,-4.265137 -0.374878,-8.846191 -0.44989,-13.272156c-0.113068,-6.672668 0,-20.020752 0,-20.020752c0,-4.869324 2.012054,-9.549561 2.474457,-14.396912c0.35611,-3.732971 0.27243,-7.497925 0.224945,-11.247559c0,0 -0.632538,-11.861084 -0.224945,-17.77124c0.172211,-2.496765 0.549072,-4.987793 1.124756,-7.423401c0,0 2.03418,-8.229126 2.924408,-12.372375c0.497345,-2.314758 1.349701,-6.97345 1.349701,-6.97345c0,0 0.292145,-2.700317 0.44989,-4.049194c0.500214,-4.276978 1.140411,-8.537964 1.574677,-12.822205c0.379272,-3.742004 0.557922,-7.502014 0.89978,-11.24762c0.267212,-2.927551 -0.006989,-5.976685 0.899841,-8.773132c0.50766,-1.565979 1.224548,-3.202698 2.474457,-4.274048c0,0 3.017944,-2.869873 4.723969,-4.049133c2.953674,-2.041687 6.299194,-3.448364 9.447998,-5.173889c2.32489,-1.274048 4.684204,-2.487305 6.973511,-3.824219c2.210083,-1.290649 4.569824,-2.395935 6.52359,-4.049133c0,0 4.249847,-2.95752 5.848755,-4.948914c1.007965,-1.255432 1.684204,-2.766663 2.249512,-4.274109l2.699432,-7.198425c0.496765,-1.324768 1.764038,-2.270386 2.249512,-3.599243c0.363861,-0.996094 0.536743,-2.092468 0.449921,-3.149353c-0.122345,-1.489014 -1.284576,-2.781433 -1.349731,-4.274048c-0.090393,-2.072021 1.349731,-6.07373 1.349731,-6.07373c0.360077,-1.6203 -0.781464,-3.26593 -1.574677,-4.723999c-0.229431,-0.421753 -0.899811,-1.124756 -0.899811,-1.124756c-1.26474,-1.580933 0.434326,-4.096252 0,-6.073669c-0.230316,-1.048645 -1.349701,-2.924377 -1.349701,-2.924377c-0.311066,-0.674011 -0.900757,-1.263489 -1.574677,-1.574707c-1.707336,-0.788391 -5.623779,-0.44989 -5.623779,-0.44989c-3.525726,-0.282043 -7.052643,0.554504 -10.572754,0.899841c-2.703064,0.265137 -8.098236,0.89978 -8.098236,0.89978c-2.921753,0.324646 -5.905975,0.250793 -8.773132,0.899841c-2.174438,0.492188 -4.101929,1.869019 -6.298676,2.249512c-0.517181,0.0896 -1.203522,0.371155 -1.574677,0c-0.795288,-0.795349 0,-3.374268 0,-3.374268c0,0 -0.147217,-2.498535 -0.674835,-3.599243c-0.896454,-1.870239 -4.049133,-4.723999 -4.049133,-4.723999c-1.142365,-1.332764 -3.209808,-1.561646 -4.948944,-1.799622c-1.937286,-0.265137 -5.848755,0.44989 -5.848755,0.44989c-1.12146,0.086304 -2.276215,0.243591 -3.374268,0c-3.635254,-0.806458 -10.122833,-4.723999 -10.122833,-4.723999c-4.706207,-2.196228 -10.328583,-1.291748 -15.521698,-1.34967c-6.987564,-0.078003 -14.041306,0.121277 -20.920502,1.34967c-2.84935,0.50885 -8.323227,2.474487 -8.323227,2.474487c-1.271591,0.378052 -1.96022,1.822815 -2.699417,2.924377c-0.69162,1.03064 -0.604965,2.599487 -1.574661,3.374268c-1.37886,1.101685 -3.479446,0.631042 -5.173904,1.124756c-1.457687,0.424744 -4.274078,1.574707 -4.274078,1.574707c-1.841507,0.678406 -2.639587,2.908569 -4.049133,4.274048c-1.945557,1.884766 -6.0737,5.398865 -6.0737,5.398865c-1.912888,1.700317 -2.778595,4.814392 -4.049133,6.523621c-1.270523,1.709167 -2.669052,2.277344 -3.374283,3.824158c-0.941452,2.064941 0.10556,4.713989 -0.899811,6.748535c-0.422806,0.855652 -1.581619,1.179199 -2.024551,2.024597c-0.778168,1.485168 -0.899811,4.948914 -0.899811,4.948914c-0.482895,2.655884 -0.560379,5.457642 0,8.098267c0.30661,1.444885 1.799606,4.049133 1.799606,4.049133c0.585785,1.318054 1.286163,2.585205 2.024567,3.824219c0.415237,0.696716 1.216217,1.224548 1.349716,2.024536c0.242462,1.453125 -1.124756,4.274109 -1.124756,4.274109c-1.458298,5.541565 -0.777817,11.457886 -1.799622,17.096313c-0.745911,4.115967 -3.149323,12.1474 -3.149323,12.1474c-0.745651,2.876038 -4.008438,4.492126 -6.523621,6.07373c-1.567749,0.98584 -5.173889,2.024536 -5.173889,2.024536c-1.96637,0.76947 -5.173889,0.224976 -6.298645,0.674866c-1.124756,0.44989 -5.291534,-0.152649 -7.873306,-0.674866c-2.858795,-0.578186 -5.588776,-1.684631 -8.323227,-2.699402c-2.363144,-0.876953 -6.973511,-2.924377 -6.973511,-2.924377c-3.544891,-1.486572 -7.048676,-3.199951 -10.797699,-4.049133c-3.37674,-0.764893 -6.885529,-0.890076 -10.347778,-0.89978l-40.1539,-0.112488c-7.16922,-0.02002 -14.358185,1.108459 -21.48291,0.787292c-1.143738,-0.051514 -4.723969,-1.799622 -7.648346,-2.924377c-2.924377,-1.124756 -4.46582,-2.609924 -6.748566,-3.824158l-10.572723,-5.623779c0,0 0,0 0,0c0,0 -5.9617,-2.212097 -8.998077,-3.149353c-3.041473,-0.938843 -6.298676,-2.249512 -9.223053,-2.474426c-2.924347,-0.224976 -13.817352,-1.124756 -10.347778,-1.124756c1.181946,0 -4.222839,-0.189453 -6.52359,0.224915c-1.727539,0.311157 -4.948944,1.799622 -4.948944,1.799622c-1.346313,0.489563 -2.576721,1.611206 -3.149353,2.924377c-0.509521,1.168457 -0.269836,2.578369 0,3.824158c0.191833,0.885498 0.622559,1.720337 1.124786,2.474487c0.794037,1.192383 1.71991,2.373779 2.924377,3.149353c2.193024,1.412109 4.966888,1.597534 7.423401,2.474426c3.17395,1.132996 6.141022,3.734558 9.447998,3.599243c3.379028,-0.138245 4.750854,0.548035 7.198456,2.699402c1.687592,1.483459 5.398834,4.049133 5.398834,4.049133c2.212219,1.65918 4.336365,3.4505 6.298645,5.398865c1.621826,1.610352 4.499054,5.173889 4.499054,5.173889c2.253662,2.591736 5.318115,4.410706 8.323212,6.07373c2.826447,1.564148 8.998077,3.599182 8.998077,3.599182c1.993622,0.797485 3.825928,1.979248 5.848724,2.699463c1.276428,0.454468 3.936676,1.012268 3.936676,1.012268c5.307312,1.364746 -0.946655,10.509949 -2.137054,15.85907c-1.004333,4.513184 -2.024567,13.722107 -2.024567,13.722107c-0.669861,4.540222 -1.116699,9.13269 -1.124756,13.722046c-0.006012,3.835938 0.320923,7.680542 0.899811,11.472534c0.406281,2.661316 1.664581,5.184631 1.799622,7.873352c0.060608,1.20752 -0.44989,3.599182 -0.44989,3.599182c-0.359253,2.874023 -2.924408,7.198486 -3.149353,8.098328c-0.224945,0.89978 -2.891815,5.522461 -3.149323,8.548157c0,0 -0.749695,7.03894 -0.899811,10.572754c-0.305481,7.191956 0,21.595337 0,21.595337c0,2.410034 -0.44989,6.298645 -0.674835,7.198486c-0.224976,0.89978 -1.574677,7.198425 -1.799622,8.098267c-0.224945,0.89978 -1.799622,8.548157 -2.024567,9.897888c-0.224976,1.34967 -2.726654,7.038147 -4.049133,10.572693c-1.454742,3.888062 -2.548431,7.921875 -4.274078,11.69751c-0.962769,2.106445 -3.374298,6.07373 -3.374298,6.07373c-1.302826,2.345093 -2.371674,4.813049 -3.599213,7.198425c-0.660004,1.282532 -1.784637,2.401978 -2.024567,3.824219c-0.164063,0.972534 0.44989,2.924377 0.44989,2.924377c0.196838,1.279358 -0.170715,2.844116 0.674866,3.824158c0.309784,0.35907 1.349701,0.44989 1.349701,0.44989c0.573517,0.191162 1.051788,-1.203247 1.574677,-0.89978c0.389099,0.22583 -0.066895,0.904785 0,1.34967c0.151642,1.008606 0.472198,1.998474 0.899811,2.924377c0.409882,0.887634 0.730164,1.981873 1.574646,2.474487c0,0 1.693817,1.302795 2.699432,1.574646c0.796234,0.215271 2.105591,0.737793 2.474457,0c0,0 0.234161,-1.717651 0.899811,-1.799561c0.686127,-0.084412 0.700012,1.338379 1.349701,1.574646c0,0 1.65567,0.837708 2.474487,0.89978c0.818817,0.062134 2.024628,0.281006 2.249512,-0.44989c0,0 0.018311,-2.41156 0.899811,-2.924377c0.597595,-0.347595 1.333252,0.44989 2.024567,0.44989c0,0 0.921265,0.137329 1.349731,0c0.614258,-0.196838 1.27948,-0.551208 1.574646,-1.124756c0.480347,-0.933411 -0.893005,-2.597412 0,-3.149292c0.570496,-0.3526 1.799622,0.89978 1.799622,0.89978c0.912201,0.456116 2.194855,-0.187073 2.924377,-0.89978c1.187225,-1.159973 1.257782,-3.094666 1.574646,-4.723999c0.229492,-1.179993 0.224945,-3.599243 0.224945,-3.599243c0,0 -0.409149,-11.849854 -0.224945,-17.771179c0.093597,-3.006348 0.674866,-8.998108 0.674866,-8.998108c0.506073,-6.747925 2.473175,-13.339233 4.499023,-19.795715c1.017151,-3.241699 3.824188,-9.447998 3.824188,-9.447998c1.291077,-3.189758 0.656616,-6.965332 2.024567,-10.122864c1.025696,-2.367493 4.499054,-6.298645 4.499054,-6.298645c2.260468,-3.164673 4.212372,-6.545105 6.52359,-9.672913c1.489349,-2.015503 4.723999,-5.848755 4.723999,-5.848755c1.075409,-1.331482 1.788635,-2.930908 2.474457,-4.499023c0.665131,-1.520752 0.925049,-3.196533 1.574677,-4.723999c0.69574,-1.635803 1.138794,-3.551025 2.474457,-4.723999c1.140839,-1.001892 4.274078,-1.574646 4.274078,-1.574646c2.059784,-0.75885 4.471161,0.121277 6.523621,0.89978c1.769501,0.671204 4.723969,3.149353 4.723969,3.149353c1.544739,1.029785 3.320648,2.262207 3.824188,4.049133c0.394897,1.401367 -0.372498,2.916992 -0.899811,4.274048c-0.69397,1.786072 -2.924377,4.948975 -2.924377,4.948975c-1.127075,1.90741 -2.239471,3.906433 -2.699402,6.073669c-0.280182,1.320313 0,4.049133 0,4.049133c0,3.294189 1.021637,6.535156 2.024567,9.672913c0.797394,2.494751 2.253143,4.737488 3.149323,7.198486c0.909302,2.497009 2.249512,7.648376 2.249512,7.648376c0.71936,2.445862 0,6.52356 0,7.648376c0,1.124756 -0.124207,6.050354 0.44989,8.998047c0.34906,1.792297 0.472565,3.919678 1.799622,5.173889c0.793488,0.749939 3.149323,0.899841 3.149323,0.899841c0.880096,0.251404 1.3367,-1.507446 2.249542,-1.574707c0.668854,-0.049194 1.799591,0.899841 1.799591,0.899841c1.14212,0.571045 1.725372,2.035278 2.924408,2.474487c1.619385,0.59314 3.449249,0 5.173889,0c0.749817,0 2.249512,0 2.249512,0c0.874451,0 1.818665,-0.588806 2.249512,-1.349731c0.184723,-0.326294 0,-1.124756 0,-1.124756c0,-1.019897 1.799622,0.89978 2.474472,1.799622c0.674866,0.89978 3.443436,2.160339 4.948944,1.34967l2.924377,-1.574646c0.797729,-0.429565 0.290436,-2.121155 1.124756,-2.474487c1.026474,-0.434631 2.114975,1.540405 3.149307,1.124817c0.466751,-0.187561 0.482376,-0.88501 0.674881,-1.349731c0.362961,-0.876282 0.899796,-2.699463 0.899796,-2.699463c0.32251,-0.967529 -0.560165,-1.962646 -0.899796,-2.924377c-0.537903,-1.52301 -1.799622,-4.499023 -1.799622,-4.499023c-0.760101,-1.900269 -4.499039,-2.924377 -5.398849,-2.924377c-0.899796,0 -4.268341,-2.441833 -6.298645,-3.824158c-1.946259,-1.325134 -4.103882,-2.47583 -5.62381,-4.274109c-1.147491,-1.357605 -2.474457,-4.723999 -2.474457,-4.723999c-0.827026,-1.578857 -1.188416,-3.398804 -1.349731,-5.173889c-0.183716,-2.02179 0.449921,-6.073669 0.449921,-6.073669c0.137573,-1.857483 2.238739,-3.002014 3.599243,-4.274109c1.018799,-0.952576 3.374268,-2.474426 3.374268,-2.474426c0.725586,-0.532104 1.842529,-0.274597 2.699417,0c1.228531,0.393677 3.149338,2.249512 3.149338,2.249512c2.563431,1.830994 5.154831,3.662964 7.423401,5.848755c1.417389,1.365601 2.35376,3.190613 3.824188,4.499023c0.807892,0.718872 1.643356,1.748474 2.699402,1.799622c4.912231,0.237732 3.248917,16.283875 2.474487,24.74469z"/>
  </g>
 </g>
</svg>